#!OML:ASF E:\Steps\Project 1\Capture day 1\Session 2\Subject.ASF
:FULLY-SPECIFIED
:DEGREES
265
root 11.0442 18.4419 18.2339 -146.339 8.16836 174.614
lowerback -8.77295 -1.5664 -3.50054
upperback 4.29296 -1.49079 -0.851123
thorax 9.59086 -0.874204 0.812166
lowerneck -2.12603 -3.33257 0.977969
upperneck 15.4165 -4.06115 1.06096
head 4.97843 -1.61574 -0.00963594
rclavicle -1.4561e-014 -1.86858e-014
rhumerus -22.9602 6.46872 -74.1849
rradius 41.8202
rwrist -6.90935
rhand -10.7663 -43.6732
rfingers 7.12502
rthumb 15.2456 -73.0914
lclavicle -1.4561e-014 -1.86858e-014
lhumerus -26.4551 -12.4414 77.5086
lradius 43.1462
lwrist 6.07948
lhand -23.8073 -14.0735
lfingers 7.12502
lthumb 2.66349 15.8896
rfemur -54.6195 0.587721 13.5788
rtibia 36.387
rfoot -23.8955 -6.89397
rtoes -10.5933
lfemur -50.9397 -6.0989 -20.4441
ltibia 62.293
lfoot -9.71595 9.88224
ltoes -31.9734
266
root 11.0845 18.4864 18.2113 -146.272 7.99442 174.755
lowerback -9.348 -1.54614 -3.52429
upperback 4.25425 -1.44499 -0.822987
thorax 9.88817 -0.859844 0.849791
lowerneck -2.12534 -3.31718 0.753518
upperneck 15.5116 -4.0647 1.42156
head 5.02021 -1.60247 0.137913
rclavicle -1.10822e-014 3.926e-015
rhumerus -23.2666 5.69526 -74.4836
rradius 41.4669
rwrist -6.60265
rhand -10.3186 -44.0832
rfingers 7.12502
rthumb 15.6768 -73.4681
lclavicle -1.10822e-014 3.926e-015
lhumerus -26.3959 -12.1837 77.6467
lradius 42.5152
lwrist 5.71018
lhand -23.9604 -14.2983
lfingers 7.12502
lthumb 2.51557 15.6666
rfemur -53.9275 0.89109 13.7787
rtibia 35.206
rfoot -23.5163 -7.08408
rtoes -10.6327
lfemur -51.1539 -6.68102 -20.7239
ltibia 61.3733
lfoot -10.8319 9.06272
ltoes -32.6456
267
root 11.126 18.5247 18.186 -146.188 7.85654 174.937
lowerback -9.47685 -1.56814 -3.66878
upperback 3.81578 -1.49495 -0.669995
thorax 9.49221 -0.898019 1.08965
lowerneck -1.70261 -3.25926 0.487935
upperneck 15.8723 -3.90429 1.41128
head 5.06431 -1.51467 0.192415
rclavicle -1.78906e-014 1.10325e-014
rhumerus -24.1908 5.58586 -74.7117
rradius 41.0483
rwrist -6.67806
rhand -10.3628 -44.6486
rfingers 7.12502
rthumb 15.6342 -74.0368
lclavicle -1.78906e-014 1.10325e-014
lhumerus -27.1989 -11.6336 77.9999
lradius 42.2235
lwrist 5.42757
lhand -23.7826 -14.2851
lfingers 7.12502
lthumb 2.68733 15.6777
rfemur -53.282 1.24563 13.9992
rtibia 34.1191
rfoot -23.3041 -7.20683
rtoes -10.0816
lfemur -51.3247 -7.30345 -20.8542
ltibia 60.315
lfoot -11.9775 8.07816
ltoes -32.6474
268
root 11.1671 18.5616 18.1627 -146.143 7.68793 175.121
lowerback -10.1223 -1.36878 -3.55222
upperback 4.04022 -1.18589 -0.838134
thorax 10.0986 -0.741572 0.882972
lowerneck -2.61394 -3.42562 1.0537
upperneck 16.3322 -4.19317 1.34292
head 5.34975 -1.61769 0.0458568
rclavicle -1.98288e-014 -2.03257e-014
rhumerus -24.2105 4.14623 -75.1456
rradius 40.5822
rwrist -6.25598
rhand -10.2885 -45.2289
rfingers 7.12502
rthumb 15.7058 -74.6115
lclavicle -1.98288e-014 -2.03257e-014
lhumerus -26.3676 -12.029 77.7487
lradius 41.6863
lwrist 5.35674
lhand -23.3979 -14.1808
lfingers 7.12502
lthumb 3.0588 15.777
rfemur -52.613 1.57989 14.2202
rtibia 33.121
rfoot -23.1101 -7.22815
rtoes -9.23686
lfemur -51.393 -8.00615 -20.8673
ltibia 59.0049
lfoot -12.8043 7.29553
ltoes -33.4847
269
root 11.2079 18.6006 18.1434 -146.142 7.35779 175.231
lowerback -10.2645 -1.64304 -3.67231
upperback 3.63248 -1.57782 -0.621818
thorax 9.76039 -0.944698 1.11156
lowerneck -2.05101 -3.34105 0.399858
upperneck 16.7841 -3.96602 1.45811
head 5.40935 -1.50805 0.209776
rclavicle -1.24737e-014 -1.15544e-015
rhumerus -25.0916 4.48906 -75.4878
rradius 40.5155
rwrist -6.0949
rhand -10.1129 -45.1108
rfingers 7.12502
rthumb 15.875 -74.4801
lclavicle -1.24737e-014 -1.15544e-015
lhumerus -27.1717 -11.096 77.961
lradius 41.2293
lwrist 4.88088
lhand -23.3782 -14.1959
lfingers 7.12502
lthumb 3.07789 15.7616
rfemur -51.8669 1.69441 14.5067
rtibia 32.1049
rfoot -22.8251 -7.23694
rtoes -9.02594
lfemur -51.4923 -8.79735 -20.8414
ltibia 57.7103
lfoot -13.3203 6.83883
ltoes -36.7869
270
root 11.2478 18.6362 18.1234 -146.093 6.94029 175.266
lowerback -10.563 -1.55709 -3.55813
upperback 3.7126 -1.44113 -0.802551
thorax 10.0093 -0.8662 0.871202
lowerneck -2.76003 -3.52285 0.874704
upperneck 17.0667 -4.3122 1.66869
head 5.61551 -1.62838 0.164924
rclavicle 9.85848e-015 1.82323e-014
rhumerus -25.3182 3.3113 -75.9853
rradius 40.4989
rwrist -6.07101
rhand -10.6678 -44.1826
rfingers 7.12502
rthumb 15.3404 -73.5936
lclavicle 9.85848e-015 1.82323e-014
lhumerus -26.6314 -11.5161 77.7435
lradius 40.8713
lwrist 4.53969
lhand -23.5156 -13.8753
lfingers 7.12502
lthumb 2.94513 16.0841
rfemur -51.1392 1.7025 14.7263
rtibia 31.0156
rfoot -22.5043 -7.31712
rtoes -8.51417
lfemur -51.7295 -9.67383 -20.8094
ltibia 56.5153
lfoot -13.6253 6.63069
ltoes -39.4648
271
root 11.2878 18.6678 18.1027 -146.029 6.6274 175.346
lowerback -11.0919 -1.61172 -3.65538
upperback 3.55176 -1.48682 -0.784121
thorax 10.1496 -0.896638 0.926613
lowerneck -2.08423 -3.46537 0.804359
upperneck 16.7527 -4.22676 1.8962
head 5.4083 -1.57912 0.265696
rclavicle 3.18055e-015 -1.16538e-014
rhumerus -25.918 2.9312 -76.3231
rradius 40.2787
rwrist -6.04103
rhand -11.2664 -43.3685
rfingers 7.12502
rthumb 14.7639 -72.8227
lclavicle 3.18055e-015 -1.16538e-014
lhumerus -26.9423 -11.3357 77.7829
lradius 40.7169
lwrist 4.14769
lhand -23.1212 -13.6899
lfingers 7.12502
lthumb 3.32605 16.2639
rfemur -50.5308 1.8241 14.8934
rtibia 30.0454
rfoot -22.3169 -7.28352
rtoes -6.57311
lfemur -51.8769 -10.4466 -20.7426
ltibia 55.1494
lfoot -13.9741 6.42344
ltoes -39.3616
272
root 11.3279 18.6997 18.0825 -146.125 6.37797 175.456
lowerback -11.3097 -1.64391 -3.78127
upperback 3.44852 -1.50495 -0.782923
thorax 10.169 -0.912914 0.991597
lowerneck -1.94682 -3.44217 0.842011
upperneck 16.7691 -4.19673 1.99656
head 5.39125 -1.55069 0.294939
rclavicle -1.38901e-014 1.6847e-014
rhumerus -26.3359 2.29468 -76.6534
rradius 39.8473
rwrist -5.75886
rhand -11.0962 -43.3155
rfingers 7.12502
rthumb 14.9278 -72.7576
lclavicle -1.38901e-014 1.6847e-014
lhumerus -27.1037 -11.0426 77.7534
lradius 40.4601
lwrist 3.90553
lhand -22.6491 -13.8223
lfingers 7.12502
lthumb 3.78194 16.1239
rfemur -49.8042 1.99371 15.112
rtibia 29.129
rfoot -22.1582 -7.22182
rtoes -4.88525
lfemur -51.7768 -11.0989 -20.672
ltibia 53.7113
lfoot -14.5274 6.10195
ltoes -37.9028
273
root 11.368 18.7269 18.0572 -146.217 6.15573 175.524
lowerback -11.5597 -1.69195 -3.99125
upperback 3.33128 -1.5303 -0.769366
thorax 10.1956 -0.938032 1.11512
lowerneck -1.96777 -3.41811 0.915772
upperneck 17.0283 -4.14807 2.00276
head 5.47381 -1.50657 0.286572
rclavicle 1.46604e-014 -3.62782e-015
rhumerus -26.9314 1.98943 -76.966
rradius 39.7692
rwrist -5.89526
rhand -10.9227 -43.6269
rfingers 7.12502
rthumb 15.095 -73.0565
lclavicle 1.46604e-014 -3.62782e-015
lhumerus -27.2932 -10.7233 77.7734
lradius 40.1842
lwrist 3.88475
lhand -22.6318 -13.8175
lfingers 7.12502
lthumb 3.79867 16.1284
rfemur -49.0597 2.13652 15.3208
rtibia 28.2135
rfoot -21.9642 -7.31508
rtoes -4.54607
lfemur -51.6905 -11.6801 -20.64
ltibia 52.3392
lfoot -14.9415 5.61048
ltoes -36.2186
274
root 11.4149 18.7597 18.036 -146.37 5.73392 175.469
lowerback -11.6703 -1.7757 -4.40623
upperback 3.23918 -1.58662 -0.662061
thorax 10.1803 -0.9942 1.45137
lowerneck -2.0933 -3.4323 0.988327
upperneck 17.4415 -4.1227 1.84849
head 5.61913 -1.47791 0.225026
rclavicle -9.49197e-015 -5.76476e-015
rhumerus -27.706 1.74668 -77.1084
rradius 40.0692
rwrist -6.35379
rhand -10.5534 -44.3881
rfingers 7.12502
rthumb 15.4507 -73.7906
lclavicle -9.49197e-015 -5.76476e-015
lhumerus -27.2956 -10.5168 77.9367
lradius 39.8351
lwrist 3.73647
lhand -22.6713 -13.4083
lfingers 7.12502
lthumb 3.76052 16.5383
rfemur -48.1377 2.08596 15.5445
rtibia 27.1579
rfoot -21.6687 -7.52731
rtoes -4.39477
lfemur -51.5209 -12.3199 -20.6478
ltibia 50.9241
lfoot -15.0854 4.99161
ltoes -35.2888
275
root 11.4579 18.7831 18.0119 -146.28 5.51232 175.521
lowerback -12.1298 -1.7306 -4.63495
upperback 3.11042 -1.46777 -0.669391
thorax 10.3083 -0.951282 1.58855
lowerneck -2.17685 -3.47813 1.08534
upperneck 17.6538 -4.18317 1.892
head 5.69924 -1.48495 0.217741
rclavicle -2.10215e-014 8.89561e-015
rhumerus -28.4086 1.12204 -77.3054
rradius 40.1155
rwrist -6.64217
rhand -9.96113 -44.8165
rfingers 7.12502
rthumb 16.0211 -74.1741
lclavicle -2.10215e-014 8.89561e-015
lhumerus -27.2001 -10.5082 77.9947
lradius 39.4957
lwrist 3.43557
lhand -22.6026 -13.026
lfingers 7.12502
lthumb 3.82691 16.9193
rfemur -47.5078 2.05151 15.8727
rtibia 26.0678
rfoot -21.2344 -7.54371
rtoes -3.98096
lfemur -51.5618 -12.7615 -20.5958
ltibia 49.4863
lfoot -15.1771 4.69968
ltoes -35.4592
276
root 11.4801 18.8017 17.9251 -147.289 6.10841 176.073
lowerback -12.1917 -1.33487 -4.41935
upperback 3.33939 -0.950276 -0.777672
thorax 10.5569 -0.692846 1.45541
lowerneck -2.357 -3.48985 1.34217
upperneck 18.1019 -4.15965 1.6862
head 5.86066 -1.44615 0.108429
rclavicle -1.89342e-014 9.64106e-015
rhumerus -29.0058 0.649247 -77.5425
rradius 39.735
rwrist -6.63446
rhand -9.91677 -44.7411
rfingers 7.12502
rthumb 16.0638 -74.0953
lclavicle -1.89342e-014 9.64106e-015
lhumerus -27.3897 -10.3075 78.035
lradius 39.2804
lwrist 3.30406
lhand -22.3625 -12.9711
lfingers 7.12502
lthumb 4.05876 16.97
rfemur -45.3983 2.54985 16.463
rtibia 24.6716
rfoot -20.8785 -6.92816
rtoes -3.67721
lfemur -49.6242 -12.829 -20.6928
ltibia 47.2509
lfoot -15.3725 5.22303
ltoes -36.2749
277
root 11.5232 18.8238 17.9061 -147.325 6.11163 176.147
lowerback -12.669 -1.33082 -4.75073
upperback 3.27513 -0.86027 -0.80212
thorax 10.7698 -0.672391 1.6287
lowerneck -1.88294 -3.49481 1.17717
upperneck 17.9307 -4.15507 1.90352
head 5.73383 -1.43934 0.213131
rclavicle 1.49089e-016 2.88238e-015
rhumerus -29.3412 0.238265 -77.8533
rradius 39.4405
rwrist -6.32798
rhand -10.3138 -44.7743
rfingers 7.12502
rthumb 15.6815 -74.1588
lclavicle 1.49089e-016 2.88238e-015
lhumerus -27.5611 -9.9673 77.9851
lradius 39.2304
lwrist 3.19052
lhand -22.2424 -12.8481
lfingers 7.12502
lthumb 4.17471 17.0907
rfemur -44.8504 2.93884 16.5752
rtibia 23.8791
rfoot -20.6514 -7.08324
rtoes -3.37945
lfemur -49.4603 -12.9864 -20.7
ltibia 45.7409
lfoot -15.3256 5.03066
ltoes -37.0217
278
root 11.5651 18.8479 17.8858 -147.639 5.89923 176.142
lowerback -12.5373 -1.3671 -5.10192
upperback 3.11182 -0.867019 -0.769609
thorax 10.5193 -0.69211 1.86472
lowerneck -1.63935 -3.56804 0.914558
upperneck 18.2014 -4.22288 2.14602
head 5.78853 -1.45082 0.333224
rclavicle -6.01324e-015 -4.27387e-015
rhumerus -30.1133 0.00968013 -78.0667
rradius 39.4936
rwrist -6.11027
rhand -10.7749 -44.6128
rfingers 7.12502
rthumb 15.2373 -74.0316
lclavicle -6.01324e-015 -4.27387e-015
lhumerus -28.0142 -9.72427 78.0824
lradius 39.2061
lwrist 3.18578
lhand -22.3812 -13.1235
lfingers 7.12502
lthumb 4.04066 16.8179
rfemur -43.884 3.18346 16.6868
rtibia 22.9666
rfoot -20.3909 -7.34705
rtoes -3.33223
lfemur -48.9657 -13.343 -20.7264
ltibia 44.187
lfoot -15.2062 4.83741
ltoes -38.1421
279
root 11.6008 18.8646 17.8532 -148.019 5.44639 176.161
lowerback -12.7528 -1.35926 -5.07507
upperback 3.31316 -0.829681 -0.831847
thorax 10.8678 -0.678584 1.78432
lowerneck -2.20663 -3.79612 0.728909
upperneck 18.6694 -4.61106 2.65268
head 6.05374 -1.59566 0.490609
rclavicle -4.87022e-015 -1.70955e-014
rhumerus -30.4204 -0.467871 -78.3818
rradius 39.5256
rwrist -6.18942
rhand -10.7483 -44.5502
rfingers 7.12502
rthumb 15.2629 -73.967
lclavicle -4.87022e-015 -1.70955e-014
lhumerus -27.5704 -9.57352 77.9741
lradius 38.9396
lwrist 3.44261
lhand -22.3701 -13.7814
lfingers 7.12502
lthumb 4.05139 16.1598
rfemur -42.6369 3.01937 17.032
rtibia 21.8874
rfoot -20.1652 -7.40164
rtoes -3.18104
lfemur -48.3445 -14.0222 -20.6127
ltibia 42.6922
lfoot -15.1125 4.65128
ltoes -38.662
